<svg width="250" height="41" viewBox="0 0 250 41" fill="none" xmlns="http://www.w3.org/2000/svg">
<path d="M39.8248 34.5433C39.8248 35.7914 38.8183 36.8032 37.5766 36.8032C36.335 36.8032 35.3285 35.7914 35.3285 34.5433C35.3285 33.2952 36.335 32.2835 37.5766 32.2835C38.8183 32.2835 39.8248 33.2952 39.8248 34.5433Z" fill="#86D6BE"/>
<path d="M42.8759 41C43.4967 41 44 40.4941 44 39.8701C44 39.246 43.4967 38.7402 42.8759 38.7402C42.2551 38.7402 41.7518 39.246 41.7518 39.8701C41.7518 40.4941 42.2551 41 42.8759 41Z" fill="#86D6BE"/>
<path d="M12.4651 27.4409L27.7306 23.8036C28.1594 23.7003 28.481 23.4617 28.6954 23.0877C28.9098 22.7135 28.9599 22.3331 28.8454 21.9461C28.731 21.5592 28.481 21.269 28.0951 21.0755C27.7091 20.8819 27.3017 20.8369 26.8729 20.94L22.6706 21.9461L15.8098 16.1417L13.4085 16.6834L17.525 23.1844L13.4085 24.1132L11.2645 22.6427L9.63504 23.0296L12.4651 27.4409Z" fill="#00382C"/>
<path fill-rule="evenodd" clip-rule="evenodd" d="M11.3078 31.7455C9.07519 31.7455 7.16771 30.9686 5.58529 29.4149C4.00286 27.8613 3.21165 25.9625 3.21165 23.7183C3.21165 21.7947 3.78819 20.0808 4.94128 18.5766C6.09435 17.0721 7.60318 16.1104 9.46774 15.6912C10.0811 13.4224 11.3078 11.5851 13.1478 10.1794C14.9878 8.77376 17.0731 8.07092 19.4038 8.07092C22.2743 8.07092 24.7092 9.07585 26.7088 11.0857C28.7082 13.0956 29.708 15.5432 29.708 18.4285C31.4009 18.6258 32.8054 19.3594 33.9216 20.6295C35.038 21.8995 35.5962 23.3853 35.5962 25.087C35.5962 26.9365 34.9521 28.5087 33.664 29.8034C32.376 31.0982 30.812 31.7455 28.9721 31.7455H11.3078ZM27.7306 23.8036L12.4651 27.4409L9.63504 23.0296L11.2645 22.6427L13.4085 24.1132L17.525 23.1844L13.4085 16.6834L15.8098 16.1417L22.6706 21.9461L26.8729 20.94C27.3017 20.8369 27.7091 20.8819 28.0951 21.0755C28.481 21.269 28.731 21.5592 28.8454 21.9461C28.9599 22.3331 28.9098 22.7135 28.6954 23.0877C28.481 23.4617 28.1594 23.7003 27.7306 23.8036Z" fill="#86D6BE"/>
<path d="M57.6407 31.5V13.21H50.4487V9.8H68.8627V13.21H61.6707V31.5H57.6407ZM71.1216 31.5V14.946H74.8106V19.503L74.3766 18.17C74.8726 17.054 75.6476 16.2067 76.7016 15.628C77.7763 15.0493 79.1093 14.76 80.7006 14.76V18.449C80.5353 18.4077 80.3803 18.387 80.2356 18.387C80.0909 18.3663 79.9463 18.356 79.8016 18.356C78.3343 18.356 77.1666 18.79 76.2986 19.658C75.4306 20.5053 74.9966 21.7763 74.9966 23.471V31.5H71.1216ZM93.0061 31.5V28.152L92.7891 27.439V21.58C92.7891 20.4433 92.4481 19.565 91.7661 18.945C91.0841 18.3043 90.0508 17.984 88.6661 17.984C87.7361 17.984 86.8165 18.1287 85.9071 18.418C85.0185 18.7073 84.2641 19.1103 83.6441 19.627L82.1251 16.806C83.0138 16.124 84.0678 15.6177 85.2871 15.287C86.5271 14.9357 87.8085 14.76 89.1311 14.76C91.5285 14.76 93.3781 15.3387 94.6801 16.496C96.0028 17.6327 96.6641 19.3997 96.6641 21.797V31.5H93.0061ZM87.7981 31.717C86.5581 31.717 85.4731 31.5103 84.5431 31.097C83.6131 30.663 82.8898 30.074 82.3731 29.33C81.8771 28.5653 81.6291 27.7077 81.6291 26.757C81.6291 25.827 81.8461 24.99 82.2801 24.246C82.7348 23.502 83.4685 22.913 84.4811 22.479C85.4938 22.045 86.8371 21.828 88.5111 21.828H93.3161V24.401H88.7901C87.4675 24.401 86.5788 24.618 86.1241 25.052C85.6695 25.4653 85.4421 25.982 85.4421 26.602C85.4421 27.3047 85.7211 27.8627 86.2791 28.276C86.8371 28.6893 87.6121 28.896 88.6041 28.896C89.5548 28.896 90.4021 28.679 91.1461 28.245C91.9108 27.811 92.4585 27.1703 92.7891 26.323L93.4401 28.648C93.0681 29.6193 92.3965 30.3737 91.4251 30.911C90.4745 31.4483 89.2655 31.717 87.7981 31.717ZM105.736 31.5L98.6375 14.946H102.667L108.774 29.547H106.79L113.114 14.946H116.834L109.735 31.5H105.736ZM126.583 31.717C124.744 31.717 123.132 31.3553 121.747 30.632C120.383 29.888 119.319 28.8753 118.554 27.594C117.81 26.3127 117.438 24.8557 117.438 23.223C117.438 21.5697 117.8 20.1127 118.523 18.852C119.267 17.5707 120.28 16.5683 121.561 15.845C122.863 15.1217 124.341 14.76 125.994 14.76C127.606 14.76 129.043 15.1113 130.303 15.814C131.564 16.5167 132.556 17.5087 133.279 18.79C134.003 20.0713 134.364 21.58 134.364 23.316C134.364 23.4813 134.354 23.6673 134.333 23.874C134.333 24.0807 134.323 24.277 134.302 24.463H120.507V21.89H132.256L130.737 22.696C130.758 21.7453 130.562 20.9083 130.148 20.185C129.735 19.4617 129.167 18.8933 128.443 18.48C127.741 18.0667 126.924 17.86 125.994 17.86C125.044 17.86 124.207 18.0667 123.483 18.48C122.781 18.8933 122.223 19.472 121.809 20.216C121.417 20.9393 121.22 21.797 121.22 22.789V23.409C121.22 24.401 121.448 25.2793 121.902 26.044C122.357 26.8087 122.998 27.3977 123.824 27.811C124.651 28.2243 125.602 28.431 126.676 28.431C127.606 28.431 128.443 28.2863 129.187 27.997C129.931 27.7077 130.593 27.253 131.171 26.633L133.248 29.02C132.504 29.888 131.564 30.5597 130.427 31.035C129.311 31.4897 128.03 31.717 126.583 31.717ZM138.086 31.5V8.498H141.961V31.5H138.086ZM147.419 31.5V9.8H157.587C160.191 9.8 162.175 10.3167 163.539 11.35C164.903 12.3627 165.585 13.7267 165.585 15.442C165.585 16.5993 165.317 17.5913 164.779 18.418C164.242 19.224 163.519 19.8543 162.609 20.309C161.721 20.743 160.749 20.96 159.695 20.96L160.253 19.844C161.473 19.844 162.568 20.0713 163.539 20.526C164.511 20.96 165.275 21.6007 165.833 22.448C166.412 23.2953 166.701 24.3493 166.701 25.61C166.701 27.47 165.988 28.9167 164.562 29.95C163.136 30.9833 161.018 31.5 158.207 31.5H147.419ZM151.449 28.338H157.959C159.468 28.338 160.625 28.09 161.431 27.594C162.237 27.098 162.64 26.3023 162.64 25.207C162.64 24.1323 162.237 23.347 161.431 22.851C160.625 22.3343 159.468 22.076 157.959 22.076H151.139V18.945H157.153C158.559 18.945 159.633 18.697 160.377 18.201C161.142 17.705 161.524 16.961 161.524 15.969C161.524 14.9563 161.142 14.202 160.377 13.706C159.633 13.21 158.559 12.962 157.153 12.962H151.449V28.338ZM177.636 31.717C176.231 31.717 174.991 31.4587 173.916 30.942C172.842 30.4047 172.005 29.5987 171.405 28.524C170.806 27.4287 170.506 26.0543 170.506 24.401V14.946H174.381V23.874C174.381 25.362 174.712 26.478 175.373 27.222C176.055 27.9453 177.016 28.307 178.256 28.307C179.166 28.307 179.951 28.121 180.612 27.749C181.294 27.377 181.821 26.819 182.193 26.075C182.586 25.331 182.782 24.4113 182.782 23.316V14.946H186.657V31.5H182.968V27.036L183.619 28.4C183.061 29.4747 182.245 30.3013 181.17 30.88C180.096 31.438 178.918 31.717 177.636 31.717ZM198.737 31.717C197.146 31.717 195.709 31.3657 194.428 30.663C193.167 29.9397 192.175 28.9477 191.452 27.687C190.729 26.4263 190.367 24.9383 190.367 23.223C190.367 21.5077 190.729 20.0197 191.452 18.759C192.175 17.4983 193.167 16.5167 194.428 15.814C195.709 15.1113 197.146 14.76 198.737 14.76C200.122 14.76 201.362 15.07 202.457 15.69C203.552 16.2893 204.42 17.209 205.061 18.449C205.702 19.689 206.022 21.2803 206.022 23.223C206.022 25.145 205.712 26.7363 205.092 27.997C204.472 29.237 203.614 30.167 202.519 30.787C201.424 31.407 200.163 31.717 198.737 31.717ZM199.202 28.4C200.132 28.4 200.959 28.1933 201.682 27.78C202.426 27.3667 203.015 26.7673 203.449 25.982C203.904 25.1967 204.131 24.277 204.131 23.223C204.131 22.1483 203.904 21.2287 203.449 20.464C203.015 19.6787 202.426 19.0793 201.682 18.666C200.959 18.2527 200.132 18.046 199.202 18.046C198.272 18.046 197.435 18.2527 196.691 18.666C195.968 19.0793 195.379 19.6787 194.924 20.464C194.49 21.2287 194.273 22.1483 194.273 23.223C194.273 24.277 194.49 25.1967 194.924 25.982C195.379 26.7673 195.968 27.3667 196.691 27.78C197.435 28.1933 198.272 28.4 199.202 28.4ZM204.224 31.5V27.594L204.379 23.192L204.069 18.79V8.498H207.913V31.5H204.224ZM220.019 31.717C218.428 31.717 216.992 31.3657 215.71 30.663C214.45 29.9397 213.458 28.9477 212.734 27.687C212.011 26.4263 211.649 24.9383 211.649 23.223C211.649 21.5077 212.011 20.0197 212.734 18.759C213.458 17.4983 214.45 16.5167 215.71 15.814C216.992 15.1113 218.428 14.76 220.019 14.76C221.404 14.76 222.644 15.07 223.739 15.69C224.835 16.2893 225.703 17.209 226.343 18.449C226.984 19.689 227.304 21.2803 227.304 23.223C227.304 25.145 226.994 26.7363 226.374 27.997C225.754 29.237 224.897 30.167 223.801 30.787C222.706 31.407 221.445 31.717 220.019 31.717ZM220.484 28.4C221.414 28.4 222.241 28.1933 222.964 27.78C223.708 27.3667 224.297 26.7673 224.731 25.982C225.186 25.1967 225.413 24.277 225.413 23.223C225.413 22.1483 225.186 21.2287 224.731 20.464C224.297 19.6787 223.708 19.0793 222.964 18.666C222.241 18.2527 221.414 18.046 220.484 18.046C219.554 18.046 218.717 18.2527 217.973 18.666C217.25 19.0793 216.661 19.6787 216.206 20.464C215.772 21.2287 215.555 22.1483 215.555 23.223C215.555 24.277 215.772 25.1967 216.206 25.982C216.661 26.7673 217.25 27.3667 217.973 27.78C218.717 28.1933 219.554 28.4 220.484 28.4ZM225.506 31.5V27.594L225.661 23.192L225.351 18.79V8.498H229.195V31.5H225.506ZM235.659 37.731C234.853 37.731 234.047 37.5967 233.241 37.328C232.435 37.0593 231.764 36.6873 231.226 36.212L232.776 33.36C233.169 33.7113 233.613 33.9903 234.109 34.197C234.605 34.4037 235.112 34.507 235.628 34.507C236.331 34.507 236.899 34.3313 237.333 33.98C237.767 33.6287 238.17 33.0397 238.542 32.213L239.503 30.043L239.813 29.578L246.075 14.946H249.795L242.045 32.833C241.529 34.073 240.95 35.0547 240.309 35.778C239.689 36.5013 238.987 37.0077 238.201 37.297C237.437 37.5863 236.589 37.731 235.659 37.731ZM239.069 32.089L231.598 14.946H235.628L241.704 29.237L239.069 32.089Z" fill="#86D6BE"/>
</svg>
