<svg width="44" height="44" viewBox="0 0 44 44" fill="none" xmlns="http://www.w3.org/2000/svg">
<path d="M12.9526 17.2523C12.9526 19.7701 11.4105 21.4581 8.66917 21.4581H4.5V0H12.9526V9.01241C12.9526 10.2141 12.4957 11.2727 11.6961 12.0166H12.9526V17.2523ZM8.49783 3.6908V10.586H8.69772C8.86906 10.586 8.95473 10.443 8.95473 10.1855V3.6908H8.49783ZM8.49783 17.7387H8.69772C8.86906 17.7387 8.95473 17.5098 8.95473 17.2523V14.3054H8.49783V17.7387Z" fill="#C6C6B5"/>
<path d="M21.6777 17.6243V21.4581H13.368V0H21.6777V12.9893H17.8227V3.6908H17.3658V13.4471H21.6777V17.1665H17.3658V17.6243H21.6777Z" fill="#C6C6B5"/>
<path d="M26.6077 17.1665H26.1222V21.4581H22.1244V0H30.5769V11.8735C30.5769 13.0752 30.12 14.1338 29.3205 14.8776H30.6055V21.4581H26.6077V17.1665ZM26.1222 13.4471H26.3792C26.4934 13.4471 26.5791 13.2468 26.5791 13.0465V3.6908H26.1222V13.4471Z" fill="#C6C6B5"/>
<path d="M39.5 4.29163V21.4581H31.0474V4.20579C31.0474 1.68804 32.5895 0 35.3023 0H39.5V3.83385H35.5022C35.1881 3.83385 35.0453 4.09135 35.0453 4.34885V17.7387H35.5022V4.29163H39.5Z" fill="#C6C6B5"/>
<path d="M4.5 44V22.5419H17.1788V44H13.181V26.2327H12.7241V44H8.95473V26.2327H8.49783V44H4.5Z" fill="#C6C6B5"/>
<path d="M22.0893 44V39.7084H21.6325V44H17.6346V22.5419H26.0872V44H22.0893ZM21.6325 26.2327V35.989H22.0893V26.2327H21.6325Z" fill="#C6C6B5"/>
<path d="M31.0138 39.7084H30.5283V44H26.5305V22.5419H34.983V34.4154C34.983 35.617 34.5261 36.6756 33.7266 37.4195H35.0116V44H31.0138V39.7084ZM30.5283 35.989H30.7853C30.8995 35.989 30.9852 35.7887 30.9852 35.5884V26.2327H30.5283V35.989Z" fill="#C6C6B5"/>
<path d="M35.4821 39.7084V22.5419H39.4799V39.7084H35.4821ZM35.4821 44V40.1661H39.4799V44H35.4821Z" fill="#C6C6B5"/>
</svg>
