<svg width="2697" height="2619" viewBox="0 0 2697 2619" fill="none" xmlns="http://www.w3.org/2000/svg">
<g filter="url(#filter0_f_582_3958)">
<path fill-rule="evenodd" clip-rule="evenodd" d="M1360.18 1000.46C1430.58 1007.12 1462.58 1090.41 1517.86 1134.5C1569.5 1175.69 1643.86 1190.6 1672.93 1249.91C1703.57 1312.4 1704.37 1390.83 1674.3 1453.6C1645.64 1513.43 1578.1 1539.8 1519.33 1570.59C1469.06 1596.93 1416.92 1616.71 1360.18 1618.16C1302.18 1619.65 1247.4 1603.78 1194.97 1578.92C1131.3 1548.73 1058.75 1522.61 1026.5 1459.95C992.312 1393.54 991.899 1310.1 1021.25 1241.41C1049.49 1175.3 1120.64 1144.13 1179.23 1102.48C1237.08 1061.35 1289.52 993.778 1360.18 1000.46Z" fill="#F19451"/>
</g>
<defs>
<filter id="filter0_f_582_3958" x="0" y="0" width="2696.39" height="2618.26" filterUnits="userSpaceOnUse" color-interpolation-filters="sRGB">
<feFlood flood-opacity="0" result="BackgroundImageFix"/>
<feBlend mode="normal" in="SourceGraphic" in2="BackgroundImageFix" result="shape"/>
<feGaussianBlur stdDeviation="500" result="effect1_foregroundBlur_582_3958"/>
</filter>
</defs>
</svg>
